<svg xmlns="http://www.w3.org/2000/svg" id="Layer_1" height="512" viewBox="0 0 256 256" width="512"><g><g><g><g><g><path d="m199.28 125.163h-37.55c-12.656 0-22.916-10.26-22.916-22.916v-32.269c0-17.553 14.23-31.783 31.783-31.783h19.816c17.553 0 31.783 14.23 31.783 31.783v32.269c0 12.656-10.26 22.916-22.916 22.916z" fill="#a86654"></path></g></g></g><g><g><g><g><g><g><path d="m217.055 88.839v13.978c0 2.642-.287 5.216-.819 7.699.271.02.543.041.819.041 5.997 0 10.859-4.862 10.859-10.859s-4.862-10.859-10.859-10.859z" fill="#fedbb0"></path></g></g><g><g><path d="m217.055 94.136v8.681c0 .82-.037 1.632-.09 2.438.03 0 .06.005.09.005 3.072 0 5.562-2.49 5.562-5.562s-2.49-5.562-5.562-5.562z" fill="#e8c197"></path></g></g></g><g><g><g><path d="m143.954 102.817v-13.978c-5.997 0-10.859 4.862-10.859 10.859s4.862 10.859 10.859 10.859c.277 0 .548-.021.819-.041-.532-2.483-.819-5.057-.819-7.699z" fill="#fedbb0"></path></g></g><g><g><path d="m143.954 102.817v-8.681c-3.072 0-5.562 2.49-5.562 5.562s2.49 5.562 5.562 5.562c.03 0 .06-.004.09-.005-.053-.806-.09-1.618-.09-2.438z" fill="#e8c197"></path></g></g></g></g><g><g><g><path d="m240.028 227.62h-126.993v-36.546c0-21.942 17.787-39.729 39.729-39.729h55.481c21.942 0 39.729 17.787 39.729 39.729v28.6c0 4.388-3.558 7.946-7.946 7.946z" fill="#8dc8d8"></path></g></g><g><g><path d="m208.245 151.345h-15.892c21.942 0 39.729 17.787 39.729 39.729v28.6c0 4.388-3.557 7.946-7.946 7.946h15.892c4.388 0 7.946-3.557 7.946-7.946v-28.6c0-21.941-17.787-39.729-39.729-39.729z" fill="#7eb7c4"></path></g></g></g><g><g><path d="m208.447 227.62h-55.885v-68.329c0-4.388 3.557-7.946 7.946-7.946h39.994c4.388 0 7.946 3.557 7.946 7.946v68.329z" fill="#e8c197"></path></g></g><g><g><path d="m152.562 176.772h55.885v50.848h-55.885z" fill="#f47da5"></path></g></g><g><g><path d="m180.505 139.368c-4.522 0-8.849-.827-12.846-2.328v14.305h25.691v-14.305c-3.997 1.501-8.324 2.328-12.845 2.328z" fill="#e8c197"></path></g></g><g><g><path d="m207.06 84.269c-19.205 0-35.513-10.184-41.499-24.37-12.119 1.125-21.607 11.317-21.607 23.73v19.188c0 20.186 16.364 36.55 36.55 36.55 20.186 0 36.55-16.364 36.55-36.55v-19.188c0-.109-.007-.217-.008-.326-3.21.618-6.547.966-9.986.966z" fill="#fedbb0"></path></g></g><g><g><circle cx="196.396" cy="94.368" fill="#725246" r="4.205"></circle></g></g><g><g><circle cx="164.613" cy="94.368" fill="#725246" r="4.205"></circle></g></g><g><g><path d="m180.505 121.483c4.973 0 9.005-2.405 9.005-5.371h-18.01c-.001 2.966 4.031 5.371 9.005 5.371z" fill="#725246"></path></g></g></g></g><g><g><path d="m203.555 131.184c2.893-2.353 5.417-5.139 7.477-8.26 4.529 2.713 11.195 8.167 12.617 17.315 2.197 14.134-13.737 25.77-13.609 33.535.056 3.396 2.571 8.113 4.685 11.49.839 1.34-.572 2.96-2.005 2.292-5.813-2.708-15.036-8.44-17.402-18.263-3.549-14.739 7.134-22.177 8.675-29.497.757-3.6.263-6.541-.438-8.612z" fill="#a86654"></path></g></g><g><g><g><g><path d="m167.952 227.62h-125.309c-4.619 0-8.364-3.745-8.364-8.364v-30.104c0-23.096 18.723-41.819 41.819-41.819h58.399c23.096 0 41.819 18.723 41.819 41.819v30.104c0 4.619-3.744 8.364-8.364 8.364z" fill="#bbe2a1"></path></g></g></g><g><g><path d="m134.497 147.333h-16.727c23.096 0 41.819 18.723 41.819 41.819v30.104c0 4.619-3.745 8.364-8.364 8.364h16.728c4.619 0 8.364-3.745 8.364-8.364v-30.104c-.001-23.096-18.724-41.819-41.82-41.819z" fill="#a9ce91"></path></g></g><g><g><path d="m101.757 175.763c1.822 2.254 5.259 2.254 7.081 0l13.848-17.131c.655-.81 1.012-1.82 1.012-2.862v-8.437h-36.801v8.437c0 1.042.357 2.052 1.012 2.862z" fill="#99bc82"></path></g></g><g><g><path d="m105.298 134.725c-4.759 0-9.314-.87-13.521-2.45v19.73c0 .765.262 1.508.744 2.103l10.176 12.589c1.339 1.657 3.865 1.657 5.204 0l10.176-12.589c.481-.595.744-1.338.744-2.103v-19.73c-4.209 1.58-8.764 2.45-13.523 2.45z" fill="#e8c197"></path></g></g><g><g><g><path d="m125.06 121.596h-39.525c-13.322 0-24.121-10.799-24.121-24.121v-37.674c0-17.353 14.067-31.42 31.42-31.42h24.928c17.353 0 31.42 14.067 31.42 31.42v37.674c0 13.322-10.8 24.121-24.122 24.121z" fill="#725246"></path></g></g><g><g><g><g><path d="m143.771 81.538v14.714c0 2.781-.302 5.49-.862 8.104.286.021.571.044.862.044 6.313 0 11.43-5.118 11.43-11.43 0-6.315-5.117-11.432-11.43-11.432z" fill="#fedbb0"></path></g></g><g><g><path d="m143.771 87.114v9.138c0 .863-.039 1.717-.095 2.567.032.001.063.005.095.005 3.233 0 5.855-2.621 5.855-5.855-.001-3.234-2.622-5.855-5.855-5.855z" fill="#e8c197"></path></g></g></g><g><g><g><path d="m66.824 96.251v-14.713c-6.313 0-11.43 5.118-11.43 11.43 0 6.313 5.118 11.43 11.43 11.43.291 0 .577-.022.862-.044-.56-2.612-.862-5.322-.862-8.103z" fill="#fedbb0"></path></g></g><g><g><path d="m66.824 96.251v-9.138c-3.233 0-5.855 2.621-5.855 5.855 0 3.233 2.621 5.855 5.855 5.855.032 0 .063-.004.095-.005-.056-.849-.095-1.703-.095-2.567z" fill="#e8c197"></path></g></g></g></g><g><g><path d="m135.648 71.329c-12.169 0-23.056-4.517-30.351-11.632-7.295 7.114-18.182 11.632-30.351 11.632-2.786 0-5.499-.248-8.123-.699v25.622c0 21.248 17.225 38.473 38.473 38.473 21.248 0 38.473-17.225 38.473-38.473v-25.622c-2.622.451-5.335.699-8.121.699z" fill="#fedbb0"></path></g></g><g><g><g><circle cx="122.025" cy="87.508" fill="#725246" r="4.426"></circle></g></g><g><g><circle cx="88.57" cy="87.508" fill="#725246" r="4.426"></circle></g></g></g><g><g><path d="m105.298 115.899c5.235 0 9.479-2.531 9.479-5.654h-18.958c0 3.123 4.243 5.654 9.479 5.654z" fill="#725246"></path></g></g></g></g><g><g><path d="m54.492 115.125h-27.037c-.728 0-1.318-.59-1.318-1.318v-5.175c0-.728.59-1.318 1.318-1.318h27.036c.728 0 1.318.59 1.318 1.318v5.175c.001.728-.589 1.318-1.317 1.318z" fill="#827f7e"></path></g></g><g><g><path d="m67.331 218.694h-52.715c-3.639 0-6.589-2.95-6.589-6.589v-62.434c0-3.639 2.95-6.589 6.589-6.589h52.716c3.639 0 6.589 2.95 6.589 6.589v62.434c0 3.639-2.95 6.589-6.59 6.589z" fill="#b2b0ad"></path></g></g><g><g><g><g><path d="m27.461 218.694h-9.424v5.631c0 1.82 1.475 3.295 3.295 3.295h2.835c1.82 0 3.295-1.475 3.295-3.295v-5.631z" fill="#58595b"></path></g></g></g><g><g><g><path d="m63.91 218.694h-9.424v5.631c0 1.82 1.475 3.295 3.295 3.295h2.835c1.82 0 3.295-1.475 3.295-3.295v-5.631z" fill="#58595b"></path></g></g></g></g><g><g><g><path d="m20.889 206.294c-1.657 0-3-1.343-3-3v-42.609c0-1.657 1.343-3 3-3s3 1.343 3 3v42.609c0 1.657-1.342 3-3 3z" fill="#a3a09d"></path></g></g><g><g><path d="m34.279 206.294c-1.657 0-3-1.343-3-3v-42.609c0-1.657 1.343-3 3-3s3 1.343 3 3v42.609c0 1.657-1.343 3-3 3z" fill="#a3a09d"></path></g></g><g><g><path d="m47.668 206.294c-1.657 0-3-1.343-3-3v-42.609c0-1.657 1.343-3 3-3s3 1.343 3 3v42.609c0 1.657-1.343 3-3 3z" fill="#a3a09d"></path></g></g><g><g><path d="m61.057 206.294c-1.657 0-3-1.343-3-3v-42.609c0-1.657 1.343-3 3-3s3 1.343 3 3v42.609c0 1.657-1.342 3-3 3z" fill="#a3a09d"></path></g></g></g></g><g fill="#422618"><path d="m168.362 135.168c-7.388-2.775-13.664-8.067-17.673-14.901-.152-.259-.361-.481-.61-.648-2.435-1.636-4.545-3.82-6.102-6.316-.325-.521-.87-.863-1.479-.93-.612-.063-1.216.15-1.646.588-1.56 1.589-3.332 2.927-5.27 3.977-.265.144-.494.345-.67.59-4.236 5.887-10.045 10.339-16.797 12.875-.78.293-1.297 1.039-1.297 1.872v15.058c0 1.104.896 2 2 2h15.679c5.957 0 11.692 1.288 17.047 3.829.269.127.561.193.857.193h.017l15.24-.009c1.104 0 2-.896 2-2v-14.306c.001-.833-.516-1.579-1.296-1.872zm-2.703 14.177h-12.832c-5.771-2.663-11.935-4.013-18.329-4.013h-13.679v-11.698c6.802-2.824 12.676-7.432 17.073-13.404 1.438-.813 2.798-1.762 4.062-2.836 1.558 2.028 3.431 3.826 5.516 5.284 4.238 7.035 10.647 12.566 18.189 15.719z"></path><path d="m205.166 129.856c-.7-.853-1.957-.977-2.811-.279-2.92 2.386-6.186 4.267-9.708 5.59-.78.293-1.297 1.039-1.297 1.872v14.305c0 1.104.896 2 2 2h4.621c.735 0 1.412-.404 1.761-1.052.75-1.393 1.562-2.712 2.346-3.989 1.695-2.76 3.298-5.367 3.872-8.097.665-3.157.554-6.227-.33-9.132-.01-.428-.16-.859-.454-1.218zm-3.13 9.528c-.432 2.051-1.792 4.264-3.366 6.827-.619 1.007-1.254 2.041-1.876 3.135h-1.443v-10.947c2.438-1.018 4.76-2.281 6.937-3.774.173 1.538.09 3.129-.252 4.759z"></path><path d="m223.785 152.347c1.85-4.404 2.452-8.483 1.841-12.416-1.378-8.862-7.327-14.503-11.704-17.524 3.826-2.788 6.823-6.663 8.553-11.059 4.486-2.093 7.44-6.662 7.44-11.651 0-4.326-2.163-8.321-5.719-10.694v-19.025c0-18.628-15.155-33.783-33.783-33.783h-19.816c-8.466 0-16.631 3.208-22.832 8.887-5.566-11.298-17.268-18.702-30.003-18.702h-24.929c-18.428 0-33.42 14.992-33.42 33.42v21.967c-3.741 2.476-6.02 6.664-6.02 11.201 0 4.947 2.741 9.484 7.059 11.815 1.898 6.52 6.312 12.093 12.25 15.448 4.399 5.972 10.272 10.58 17.073 13.403v11.698h-13.677c-.428 0-.875.008-1.347.025-1.519-2.607-4.34-4.276-7.42-4.276h-6.041v-26.886c0-2.22-1.471-4.082-3.482-4.721v-.841c0-1.83-1.488-3.318-3.317-3.318h-27.035c-1.83 0-3.318 1.488-3.318 3.318v.842c-2.01.639-3.481 2.501-3.481 4.721v26.886h-6.04c-4.736 0-8.59 3.853-8.59 8.589v62.434c0 4.736 3.854 8.589 8.59 8.589h1.422v3.631c0 2.919 2.375 5.294 5.295 5.294h2.834c2.92 0 5.295-2.375 5.295-5.294v-3.631h2.917c.701 5.037 5.037 8.926 10.265 8.926h197.385c5.484 0 9.946-4.461 9.946-9.945v-28.6c-.002-17.12-10.438-32.413-26.191-38.728zm-195.648-43.032h25.672v3.81h-25.672zm-3.481 6.257c.588.93 1.619 1.553 2.799 1.553h27.036c1.18 0 2.211-.624 2.799-1.554v25.51h-3.438v-.107c0-2.744-2.232-4.976-4.976-4.976h-15.806c-2.743 0-4.976 2.232-4.976 4.976v.107h-3.438zm25.196 25.402v.107h-17.757v-.107c0-.538.438-.976.976-.976h15.807c.537 0 .974.438.974.976zm196.122 78.7c0 3.278-2.668 5.945-5.946 5.945h-197.385c-3.509 0-6.364-2.854-6.364-6.363v-.563c0-1.104-.896-2-2-2h-6.817c-1.104 0-2 .896-2 2v5.631c0 .714-.581 1.294-1.295 1.294h-2.834c-.714 0-1.295-.581-1.295-1.294v-5.631c0-1.104-.896-2-2-2h-3.422c-2.531 0-4.59-2.059-4.59-4.589v-62.434c0-2.531 2.059-4.589 4.59-4.589h52.716c1.918 0 3.648 1.215 4.308 3.023.302.833 1.117 1.36 2.001 1.312.92-.056 1.724-.083 2.458-.083h15.678c1.104 0 2-.896 2-2v-15.058c0-.833-.517-1.579-1.297-1.872-6.751-2.536-12.559-6.988-16.797-12.875-.176-.245-.405-.446-.67-.59-5.438-2.946-9.42-8.063-10.926-14.036-.149-.593-.562-1.085-1.119-1.335-3.386-1.522-5.573-4.897-5.573-8.598 0-3.474 1.903-6.658 4.968-8.308.647-.349 1.052-1.025 1.052-1.761v-23.1c0-16.222 13.197-29.42 29.42-29.42h24.928c12.104 0 23.146 7.597 27.479 18.904.248.648.814 1.121 1.496 1.25.68.13 1.381-.106 1.849-.618 5.635-6.179 13.657-9.722 22.012-9.722h19.816c16.423 0 29.783 13.36 29.783 29.783v20.155c0 .736.404 1.412 1.052 1.761 2.879 1.55 4.667 4.541 4.667 7.805 0 3.651-2.3 6.977-5.723 8.275-.552.209-.982.651-1.178 1.207-1.485 4.226-4.356 7.933-8.084 10.439-.248.167-.456.388-.608.646-.28.477-.789 1.285-.939 1.524-.286.455-.399 1.042-.273 1.565.125.523.434 1.009.896 1.286 4.626 2.771 10.405 7.78 11.668 15.906.581 3.733-.181 7.56-2.395 12.042-.255.516-.275 1.117-.056 1.649.22.532.658.944 1.203 1.13 15.281 5.212 25.549 19.562 25.549 35.708v28.599z"></path></g></g></svg>