<svg xmlns="http://www.w3.org/2000/svg" height="582pt" viewBox="1 1 582 582.87498" width="582pt"><g id="surface1"><path d="M 471.6875 264.367188 L 425.238281 436.796875 C 421.28125 454.609375 432.507812 472.253906 450.320312 476.214844 C 452.671875 476.734375 455.074219 477 457.488281 477 L 550.390625 477 C 568.632812 477 583.425781 462.210938 583.425781 443.964844 C 583.425781 441.554688 583.160156 439.152344 582.636719 436.796875 L 536.1875 264.367188 C 532.828125 249.253906 519.421875 238.5 503.9375 238.5 C 488.453125 238.5 475.046875 249.253906 471.6875 264.367188 Z M 471.6875 264.367188 " style=" stroke:none;fill-rule:nonzero;fill:rgb(55.686275%,39.607843%,11.764706%);fill-opacity:1;"></path><path d="M 106.4375 238.5 L 503.9375 238.5 C 533.207031 238.5 556.9375 262.230469 556.9375 291.5 L 556.9375 477 L 106.4375 477 C 77.164062 477 53.4375 453.269531 53.4375 424 L 53.4375 291.5 C 53.4375 262.230469 77.164062 238.5 106.4375 238.5 Z M 106.4375 238.5 " style=" stroke:none;fill-rule:nonzero;fill:rgb(70.980392%,67.843137%,51.764706%);fill-opacity:1;"></path><path d="M 397.9375 424 L 397.9375 291.5 C 397.9375 262.226562 421.664062 238.5 450.9375 238.5 L 106.4375 238.5 C 77.164062 238.5 53.4375 262.226562 53.4375 291.5 L 53.4375 477 L 450.9375 477 C 421.667969 477 397.9375 453.269531 397.9375 424 Z M 397.9375 424 " style=" stroke:none;fill-rule:nonzero;fill:rgb(87.058824%,88.235294%,78.431373%);fill-opacity:1;"></path><path d="M 159.4375 132.5 C 174.074219 132.5 185.9375 144.363281 185.9375 159 L 185.9375 503.5 C 185.9375 518.136719 174.074219 530 159.4375 530 C 144.800781 530 132.9375 518.136719 132.9375 503.5 L 132.9375 159 C 132.9375 144.363281 144.800781 132.5 159.4375 132.5 Z M 159.4375 132.5 " style=" stroke:none;fill-rule:nonzero;fill:rgb(78.039216%,77.254902%,63.529412%);fill-opacity:1;"></path><path d="M 185.9375 185.5 C 185.9375 200.136719 174.074219 212 159.4375 212 C 144.800781 212 132.9375 200.136719 132.9375 185.5 C 132.9375 170.863281 144.800781 159 159.4375 159 C 174.074219 159 185.9375 170.863281 185.9375 185.5 Z M 185.9375 185.5 " style=" stroke:none;fill-rule:nonzero;fill:rgb(70.980392%,67.843137%,51.764706%);fill-opacity:1;"></path><path d="M 291.9375 530 C 291.9375 559.269531 268.207031 583 238.9375 583 C 209.667969 583 185.9375 559.269531 185.9375 530 C 185.9375 500.726562 209.667969 477 238.9375 477 C 268.207031 477 291.9375 500.726562 291.9375 530 Z M 291.9375 530 " style=" stroke:none;fill-rule:nonzero;fill:rgb(27.058824%,9.411765%,0%);fill-opacity:1;"></path><path d="M 26.9375 132.5 L 159.4375 132.5 C 174.074219 132.5 185.9375 144.363281 185.9375 159 C 185.9375 173.636719 174.074219 185.5 159.4375 185.5 L 26.9375 185.5 C 12.300781 185.5 0.4375 173.636719 0.4375 159 C 0.4375 144.363281 12.300781 132.5 26.9375 132.5 Z M 26.9375 132.5 " style=" stroke:none;fill-rule:nonzero;fill:rgb(23.921569%,76.862745%,63.137255%);fill-opacity:1;"></path><path d="M 40.1875 159 L 146.1875 159 C 153.503906 159 159.4375 164.933594 159.4375 172.25 C 159.4375 179.566406 153.503906 185.5 146.1875 185.5 L 40.1875 185.5 C 32.871094 185.5 26.9375 179.566406 26.9375 172.25 C 26.9375 164.933594 32.871094 159 40.1875 159 Z M 40.1875 159 " style=" stroke:none;fill-rule:nonzero;fill:rgb(0%,65.490196%,53.72549%);fill-opacity:1;"></path><path d="M 530.4375 530 C 530.4375 559.269531 506.710938 583 477.4375 583 C 448.167969 583 424.4375 559.269531 424.4375 530 C 424.4375 500.726562 448.167969 477 477.4375 477 C 506.710938 477 530.4375 500.726562 530.4375 530 Z M 530.4375 530 " style=" stroke:none;fill-rule:nonzero;fill:rgb(27.058824%,9.411765%,0%);fill-opacity:1;"></path><path d="M 477.4375 503.5 L 503.9375 503.5 C 518.574219 503.5 530.4375 515.363281 530.4375 530 C 530.4375 544.636719 518.574219 556.5 503.9375 556.5 L 477.4375 556.5 C 462.800781 556.5 450.9375 544.636719 450.9375 530 C 450.9375 515.363281 462.800781 503.5 477.4375 503.5 Z M 477.4375 503.5 " style=" stroke:none;fill-rule:nonzero;fill:rgb(20.784314%,4.313725%,0%);fill-opacity:1;"></path><path d="M 238.9375 503.5 L 265.4375 503.5 C 280.074219 503.5 291.9375 515.363281 291.9375 530 C 291.9375 544.636719 280.074219 556.5 265.4375 556.5 L 238.9375 556.5 C 224.300781 556.5 212.4375 544.636719 212.4375 530 C 212.4375 515.363281 224.300781 503.5 238.9375 503.5 Z M 238.9375 503.5 " style=" stroke:none;fill-rule:nonzero;fill:rgb(20.784314%,4.313725%,0%);fill-opacity:1;"></path><path d="M 26.9375 477 L 556.9375 477 C 571.570312 477 583.4375 488.863281 583.4375 503.5 C 583.4375 518.136719 571.570312 530 556.9375 530 L 26.9375 530 C 12.300781 530 0.4375 518.136719 0.4375 503.5 C 0.4375 488.863281 12.300781 477 26.9375 477 Z M 26.9375 477 " style=" stroke:none;fill-rule:nonzero;fill:rgb(87.058824%,88.235294%,78.431373%);fill-opacity:1;"></path><path d="M 185.9375 450.5 L 265.4375 450.5 C 280.074219 450.5 291.9375 462.363281 291.9375 477 C 291.9375 491.632812 280.074219 503.5 265.4375 503.5 L 185.9375 503.5 C 171.300781 503.5 159.4375 491.632812 159.4375 477 C 159.4375 462.363281 171.300781 450.5 185.9375 450.5 Z M 185.9375 450.5 " style=" stroke:none;fill-rule:nonzero;fill:rgb(78.039216%,77.254902%,63.529412%);fill-opacity:1;"></path><path d="M 450.9375 477 L 556.9375 477 C 571.570312 477 583.4375 488.863281 583.4375 503.5 C 583.4375 518.136719 571.570312 530 556.9375 530 L 450.9375 530 C 436.300781 530 424.4375 518.136719 424.4375 503.5 C 424.4375 488.863281 436.300781 477 450.9375 477 Z M 450.9375 477 " style=" stroke:none;fill-rule:nonzero;fill:rgb(78.039216%,77.254902%,63.529412%);fill-opacity:1;"></path><path d="M 397.9375 530 C 397.9375 559.269531 374.207031 583 344.9375 583 C 315.667969 583 291.9375 559.269531 291.9375 530 C 291.9375 500.726562 315.667969 477 344.9375 477 C 374.207031 477 397.9375 500.726562 397.9375 530 Z M 397.9375 530 " style=" stroke:none;fill-rule:nonzero;fill:rgb(43.921569%,23.137255%,14.509804%);fill-opacity:1;"></path><path d="M 371.4375 530 C 371.4375 544.636719 359.574219 556.5 344.9375 556.5 C 330.300781 556.5 318.4375 544.636719 318.4375 530 C 318.4375 515.363281 330.300781 503.5 344.9375 503.5 C 359.574219 503.5 371.4375 515.363281 371.4375 530 Z M 371.4375 530 " style=" stroke:none;fill-rule:nonzero;fill:rgb(27.058824%,9.411765%,0%);fill-opacity:1;"></path><path d="M 159.4375 530 C 159.4375 559.269531 135.707031 583 106.4375 583 C 77.164062 583 53.4375 559.269531 53.4375 530 C 53.4375 500.726562 77.164062 477 106.4375 477 C 135.707031 477 159.4375 500.726562 159.4375 530 Z M 159.4375 530 " style=" stroke:none;fill-rule:nonzero;fill:rgb(43.921569%,23.137255%,14.509804%);fill-opacity:1;"></path><path d="M 106.621094 450.5 C 106.558594 450.5 106.5 450.5 106.4375 450.5 C 106.316406 450.5 106.195312 450.5 106.074219 450.503906 L 104.265625 450.53125 C 97.066406 450.605469 91.292969 456.503906 91.367188 463.703125 C 91.367188 463.785156 91.371094 463.871094 91.371094 463.953125 C 91.589844 471.21875 97.53125 477 104.796875 477.019531 C 104.859375 477.019531 104.917969 477.019531 104.980469 477.019531 C 105.089844 477.015625 105.199219 477.015625 105.308594 477.011719 L 105.375 477.011719 L 105.425781 477.007812 L 105.71875 477.007812 L 105.789062 477.003906 L 107.222656 477.003906 L 107.28125 477.007812 L 107.46875 477.007812 L 107.546875 477.011719 L 107.730469 477.011719 L 107.785156 477.015625 L 107.882812 477.015625 L 107.910156 477.019531 L 107.992188 477.019531 L 108.042969 477.023438 L 108.128906 477.023438 L 108.152344 477.027344 L 108.226562 477.027344 L 108.246094 477.03125 L 108.304688 477.03125 L 108.332031 477.035156 L 108.414062 477.035156 L 108.464844 477.039062 L 108.492188 477.039062 L 108.570312 477.042969 L 108.582031 477.042969 L 108.648438 477.046875 L 108.671875 477.046875 L 108.726562 477.050781 L 108.753906 477.050781 L 108.808594 477.054688 L 108.832031 477.054688 L 108.910156 477.058594 L 108.921875 477.058594 L 108.984375 477.0625 L 109.015625 477.0625 L 109.066406 477.066406 L 109.09375 477.066406 L 109.148438 477.070312 L 109.171875 477.070312 L 109.25 477.074219 L 109.253906 477.074219 L 109.324219 477.078125 L 109.351562 477.082031 L 109.40625 477.082031 L 109.429688 477.085938 L 109.484375 477.089844 L 109.507812 477.089844 L 109.664062 477.097656 L 109.683594 477.101562 L 109.746094 477.105469 L 109.765625 477.105469 L 109.824219 477.109375 L 109.847656 477.109375 L 109.921875 477.117188 L 109.925781 477.117188 L 110.003906 477.121094 L 110.023438 477.125 L 110.082031 477.128906 L 110.105469 477.128906 L 110.160156 477.132812 L 110.1875 477.136719 L 110.261719 477.140625 L 110.339844 477.144531 L 110.359375 477.148438 L 110.417969 477.152344 L 110.445312 477.15625 L 110.5 477.160156 L 110.523438 477.160156 L 110.59375 477.164062 L 110.597656 477.164062 L 110.679688 477.171875 L 110.691406 477.171875 L 110.757812 477.175781 L 110.777344 477.179688 L 110.835938 477.183594 L 110.859375 477.1875 L 110.925781 477.191406 L 110.933594 477.191406 L 111.015625 477.199219 L 111.03125 477.203125 L 111.09375 477.207031 L 111.117188 477.207031 L 111.167969 477.210938 L 111.195312 477.214844 L 111.253906 477.21875 L 111.273438 477.222656 L 111.351562 477.230469 L 111.363281 477.230469 L 111.429688 477.234375 L 111.453125 477.238281 L 111.503906 477.242188 L 111.53125 477.246094 L 111.589844 477.25 L 111.609375 477.253906 L 111.683594 477.261719 L 111.699219 477.261719 L 111.761719 477.269531 L 111.789062 477.269531 L 111.839844 477.277344 L 111.867188 477.28125 L 111.921875 477.285156 L 111.945312 477.289062 L 112.019531 477.296875 L 112.035156 477.296875 L 112.09375 477.304688 L 112.125 477.304688 L 112.171875 477.3125 L 112.203125 477.3125 L 112.253906 477.320312 L 112.28125 477.324219 L 112.355469 477.332031 L 112.363281 477.332031 L 112.433594 477.339844 L 112.457031 477.34375 L 112.507812 477.347656 L 112.539062 477.351562 L 112.589844 477.355469 L 112.613281 477.359375 L 112.765625 477.378906 L 112.789062 477.382812 L 112.84375 477.386719 L 112.867188 477.390625 L 112.929688 477.398438 L 112.945312 477.398438 C 112.996094 477.40625 113.050781 477.414062 113.101562 477.417969 L 113.121094 477.421875 L 113.203125 477.433594 L 113.257812 477.4375 L 113.277344 477.441406 L 113.347656 477.453125 L 113.355469 477.453125 L 113.433594 477.460938 L 113.449219 477.464844 L 113.507812 477.472656 L 113.53125 477.476562 L 113.589844 477.484375 L 113.609375 477.484375 L 113.679688 477.496094 L 113.6875 477.496094 L 113.765625 477.507812 L 113.773438 477.507812 L 113.839844 477.515625 L 113.863281 477.519531 L 113.921875 477.527344 L 113.9375 477.53125 L 114.015625 477.542969 L 114.097656 477.554688 L 114.101562 477.554688 L 114.171875 477.566406 L 114.191406 477.570312 L 114.25 477.578125 L 114.269531 477.582031 L 114.335938 477.589844 L 114.347656 477.59375 L 114.5 477.617188 L 114.519531 477.617188 L 114.582031 477.628906 L 114.597656 477.628906 L 114.671875 477.640625 L 114.832031 477.667969 L 114.84375 477.667969 L 114.910156 477.679688 L 114.925781 477.679688 L 114.992188 477.691406 L 115.003906 477.691406 C 115.054688 477.699219 115.105469 477.710938 115.15625 477.71875 L 115.175781 477.722656 L 115.238281 477.734375 L 115.25 477.734375 L 115.320312 477.746094 L 115.328125 477.746094 L 115.484375 477.773438 L 115.5 477.777344 L 115.566406 477.789062 L 115.578125 477.789062 L 115.644531 477.800781 L 115.65625 477.804688 L 115.8125 477.832031 L 115.828125 477.835938 L 115.890625 477.847656 L 115.90625 477.847656 L 115.976562 477.863281 L 115.980469 477.863281 C 116.035156 477.871094 116.089844 477.882812 116.140625 477.890625 L 116.144531 477.890625 L 116.21875 477.90625 L 116.230469 477.910156 L 116.296875 477.921875 L 116.308594 477.921875 C 116.359375 477.933594 116.414062 477.945312 116.464844 477.953125 L 116.472656 477.953125 L 116.542969 477.96875 L 116.554688 477.96875 L 116.625 477.984375 L 116.632812 477.984375 L 116.792969 478.015625 L 116.871094 478.03125 L 116.878906 478.035156 L 116.949219 478.046875 L 116.960938 478.050781 C 117.011719 478.0625 117.0625 478.074219 117.117188 478.082031 L 117.191406 478.097656 L 117.203125 478.101562 L 117.269531 478.113281 L 117.285156 478.117188 L 117.355469 478.132812 L 117.359375 478.132812 C 117.414062 478.144531 117.464844 478.15625 117.515625 478.164062 L 117.523438 478.167969 L 117.59375 478.183594 L 117.605469 478.183594 L 117.839844 478.238281 L 117.847656 478.238281 L 117.917969 478.253906 L 117.925781 478.257812 C 118.03125 478.28125 118.136719 478.304688 118.242188 478.328125 L 118.246094 478.328125 L 118.484375 478.382812 L 118.558594 478.402344 L 118.570312 478.402344 L 118.644531 478.421875 C 118.722656 478.441406 118.804688 478.457031 118.882812 478.480469 L 118.886719 478.480469 C 119.097656 478.53125 119.308594 478.582031 119.519531 478.636719 L 119.527344 478.636719 L 119.597656 478.65625 L 119.605469 478.65625 L 119.835938 478.71875 L 119.84375 478.71875 L 119.914062 478.738281 L 119.921875 478.742188 C 120 478.761719 120.078125 478.78125 120.15625 478.800781 L 120.160156 478.804688 L 120.234375 478.824219 L 120.238281 478.824219 C 120.316406 478.84375 120.394531 478.867188 120.472656 478.890625 L 120.550781 478.910156 C 120.65625 478.941406 120.761719 478.96875 120.863281 479 L 120.867188 479 L 120.945312 479.023438 L 121.101562 479.066406 L 121.175781 479.085938 L 121.183594 479.089844 C 121.285156 479.121094 121.390625 479.148438 121.492188 479.179688 L 121.496094 479.183594 L 121.570312 479.203125 L 121.574219 479.203125 C 121.753906 479.257812 121.933594 479.316406 122.117188 479.371094 L 122.121094 479.371094 L 122.191406 479.394531 L 122.199219 479.394531 C 122.273438 479.417969 122.351562 479.445312 122.425781 479.46875 L 122.429688 479.46875 L 122.503906 479.492188 C 123.230469 479.722656 123.945312 479.96875 124.65625 480.226562 C 135.339844 484.152344 144.480469 491.402344 150.738281 500.910156 C 150.855469 501.085938 150.972656 501.265625 151.085938 501.445312 C 151.789062 502.539062 152.449219 503.664062 153.074219 504.816406 L 153.078125 504.816406 L 153.113281 504.886719 C 153.164062 504.984375 153.214844 505.074219 153.265625 505.167969 L 153.265625 505.171875 C 153.464844 505.546875 153.660156 505.925781 153.851562 506.3125 C 153.996094 506.597656 154.136719 506.882812 154.277344 507.175781 L 154.277344 507.179688 C 154.324219 507.273438 154.367188 507.371094 154.414062 507.464844 L 154.414062 507.46875 C 154.503906 507.660156 154.59375 507.855469 154.683594 508.050781 L 154.714844 508.121094 L 154.71875 508.125 L 154.75 508.195312 L 154.816406 508.34375 L 154.820312 508.347656 L 154.847656 508.414062 L 154.851562 508.421875 C 154.882812 508.492188 154.917969 508.566406 154.949219 508.636719 L 154.949219 508.640625 L 154.980469 508.710938 L 154.984375 508.714844 L 155.011719 508.785156 L 155.015625 508.785156 C 155.046875 508.859375 155.078125 508.933594 155.109375 509.007812 L 155.113281 509.011719 L 155.140625 509.078125 L 155.144531 509.085938 C 155.175781 509.15625 155.207031 509.230469 155.238281 509.300781 L 155.238281 509.308594 L 155.269531 509.375 L 155.269531 509.382812 C 155.355469 509.578125 155.4375 509.773438 155.515625 509.972656 L 155.519531 509.976562 C 155.558594 510.074219 155.597656 510.175781 155.636719 510.273438 L 155.640625 510.277344 C 155.667969 510.351562 155.699219 510.421875 155.726562 510.5 L 155.757812 510.574219 L 155.757812 510.578125 C 155.796875 510.675781 155.835938 510.777344 155.875 510.875 C 155.914062 510.976562 155.953125 511.078125 155.992188 511.175781 L 155.992188 511.179688 C 156.066406 511.378906 156.144531 511.582031 156.21875 511.785156 L 156.21875 511.789062 C 156.4375 512.390625 156.648438 512.996094 156.847656 513.609375 C 159.113281 520.566406 166.59375 524.367188 173.550781 522.101562 C 180.5 519.835938 184.304688 512.367188 182.046875 505.414062 C 171.5 472.78125 141.167969 450.628906 106.871094 450.507812 C 106.789062 450.5 106.703125 450.5 106.621094 450.5 Z M 106.621094 450.5 " style=" stroke:none;fill-rule:nonzero;fill:rgb(78.039216%,77.254902%,63.529412%);fill-opacity:1;"></path><path d="M 345.121094 450.5 C 345.058594 450.5 345 450.5 344.9375 450.5 C 344.816406 450.5 344.695312 450.5 344.574219 450.503906 L 342.765625 450.53125 C 335.566406 450.605469 329.792969 456.503906 329.867188 463.703125 C 329.871094 463.785156 329.871094 463.871094 329.875 463.953125 C 330.089844 471.21875 336.03125 477 343.296875 477.019531 C 343.359375 477.019531 343.417969 477.019531 343.480469 477.019531 C 343.589844 477.015625 343.699219 477.015625 343.808594 477.011719 L 343.875 477.011719 L 343.925781 477.007812 L 344.21875 477.007812 L 344.292969 477.003906 L 345.722656 477.003906 L 345.78125 477.007812 L 345.96875 477.007812 L 346.046875 477.011719 L 346.234375 477.011719 L 346.285156 477.015625 L 346.386719 477.015625 L 346.410156 477.019531 L 346.492188 477.019531 L 346.546875 477.023438 L 346.628906 477.023438 L 346.652344 477.027344 L 346.726562 477.027344 L 346.75 477.03125 L 346.804688 477.03125 L 346.835938 477.035156 L 346.914062 477.035156 L 346.964844 477.039062 L 346.992188 477.039062 L 347.070312 477.042969 L 347.082031 477.042969 L 347.148438 477.046875 L 347.171875 477.046875 L 347.226562 477.050781 L 347.253906 477.050781 L 347.308594 477.054688 L 347.332031 477.054688 L 347.410156 477.058594 L 347.421875 477.058594 L 347.488281 477.0625 L 347.515625 477.0625 L 347.566406 477.066406 L 347.59375 477.066406 L 347.648438 477.070312 L 347.671875 477.070312 L 347.75 477.074219 L 347.753906 477.074219 L 347.828125 477.078125 L 347.851562 477.082031 L 347.90625 477.082031 L 347.929688 477.085938 L 347.988281 477.089844 L 348.011719 477.089844 L 348.167969 477.097656 L 348.183594 477.101562 L 348.246094 477.105469 L 348.269531 477.105469 L 348.324219 477.109375 L 348.347656 477.109375 L 348.421875 477.117188 L 348.425781 477.117188 L 348.503906 477.121094 L 348.523438 477.125 L 348.582031 477.128906 L 348.605469 477.128906 L 348.664062 477.132812 L 348.6875 477.136719 L 348.761719 477.140625 L 348.839844 477.144531 L 348.863281 477.148438 L 348.921875 477.152344 L 348.945312 477.15625 L 349 477.160156 L 349.023438 477.160156 L 349.09375 477.164062 L 349.101562 477.164062 L 349.179688 477.171875 L 349.191406 477.171875 L 349.257812 477.175781 L 349.277344 477.179688 L 349.339844 477.183594 L 349.359375 477.1875 L 349.429688 477.191406 L 349.4375 477.191406 L 349.515625 477.199219 L 349.535156 477.203125 L 349.59375 477.207031 L 349.621094 477.207031 L 349.667969 477.210938 L 349.699219 477.214844 L 349.753906 477.21875 L 349.773438 477.222656 L 349.851562 477.230469 L 349.863281 477.230469 L 349.929688 477.234375 L 349.953125 477.238281 L 350.007812 477.242188 L 350.035156 477.246094 L 350.089844 477.25 L 350.109375 477.253906 L 350.1875 477.261719 L 350.199219 477.261719 L 350.265625 477.269531 L 350.289062 477.269531 L 350.339844 477.277344 L 350.371094 477.28125 L 350.421875 477.285156 L 350.449219 477.289062 L 350.523438 477.296875 L 350.539062 477.296875 L 350.597656 477.304688 L 350.628906 477.304688 L 350.675781 477.3125 L 350.707031 477.3125 L 350.753906 477.320312 L 350.78125 477.324219 L 350.859375 477.332031 L 350.867188 477.332031 L 350.9375 477.339844 L 350.957031 477.34375 L 351.011719 477.347656 L 351.039062 477.351562 L 351.09375 477.355469 L 351.117188 477.359375 L 351.269531 477.378906 L 351.289062 477.382812 L 351.347656 477.386719 L 351.371094 477.390625 L 351.429688 477.398438 L 351.445312 477.398438 C 351.496094 477.40625 351.550781 477.414062 351.601562 477.417969 L 351.621094 477.421875 L 351.703125 477.433594 L 351.757812 477.4375 L 351.851562 477.453125 L 351.855469 477.453125 L 351.933594 477.460938 L 351.949219 477.464844 L 352.011719 477.472656 L 352.035156 477.476562 L 352.09375 477.484375 L 352.109375 477.484375 L 352.179688 477.496094 L 352.1875 477.496094 L 352.269531 477.507812 L 352.277344 477.507812 L 352.34375 477.515625 L 352.363281 477.519531 L 352.425781 477.527344 L 352.441406 477.53125 L 352.515625 477.542969 L 352.519531 477.542969 L 352.597656 477.554688 L 352.601562 477.554688 L 352.675781 477.566406 L 352.695312 477.570312 L 352.753906 477.578125 L 352.769531 477.582031 L 352.839844 477.589844 L 352.847656 477.59375 L 353.003906 477.617188 L 353.023438 477.617188 L 353.085938 477.628906 L 353.097656 477.628906 L 353.171875 477.640625 L 353.175781 477.640625 L 353.335938 477.667969 L 353.347656 477.667969 L 353.414062 477.679688 L 353.425781 477.679688 L 353.496094 477.691406 L 353.503906 477.691406 C 353.558594 477.699219 353.609375 477.710938 353.660156 477.71875 L 353.675781 477.722656 L 353.742188 477.734375 L 353.753906 477.734375 L 353.824219 477.746094 L 353.832031 477.746094 L 353.988281 477.773438 L 354 477.777344 L 354.070312 477.789062 L 354.082031 477.789062 L 354.148438 477.800781 L 354.160156 477.804688 L 354.316406 477.832031 L 354.328125 477.835938 L 354.394531 477.847656 L 354.410156 477.847656 L 354.476562 477.863281 L 354.484375 477.863281 C 354.539062 477.871094 354.59375 477.882812 354.644531 477.890625 L 354.648438 477.890625 L 354.722656 477.90625 L 354.734375 477.910156 L 354.800781 477.921875 L 354.8125 477.921875 C 354.863281 477.933594 354.917969 477.945312 354.96875 477.953125 L 354.976562 477.953125 L 355.046875 477.96875 L 355.058594 477.96875 L 355.128906 477.984375 L 355.136719 477.984375 L 355.296875 478.015625 L 355.375 478.03125 L 355.382812 478.035156 L 355.453125 478.046875 L 355.464844 478.050781 C 355.515625 478.0625 355.566406 478.074219 355.621094 478.082031 L 355.695312 478.097656 L 355.707031 478.101562 L 355.773438 478.113281 L 355.789062 478.117188 L 355.859375 478.132812 L 355.863281 478.132812 C 355.917969 478.144531 355.96875 478.15625 356.019531 478.164062 L 356.027344 478.167969 L 356.097656 478.183594 L 356.109375 478.183594 L 356.34375 478.238281 L 356.351562 478.238281 L 356.421875 478.253906 L 356.429688 478.257812 C 356.535156 478.28125 356.640625 478.304688 356.746094 478.328125 L 356.75 478.328125 L 356.988281 478.382812 L 357.0625 478.402344 L 357.074219 478.402344 L 357.148438 478.421875 C 357.226562 478.441406 357.308594 478.457031 357.386719 478.480469 L 357.390625 478.480469 C 357.601562 478.53125 357.8125 478.582031 358.023438 478.636719 L 358.03125 478.636719 L 358.101562 478.65625 L 358.109375 478.65625 L 358.339844 478.71875 L 358.347656 478.71875 L 358.417969 478.738281 L 358.425781 478.742188 C 358.503906 478.761719 358.582031 478.78125 358.660156 478.800781 L 358.664062 478.804688 L 358.738281 478.824219 L 358.742188 478.824219 C 358.820312 478.84375 358.898438 478.867188 358.976562 478.890625 L 359.054688 478.910156 C 359.160156 478.941406 359.265625 478.96875 359.367188 479 L 359.371094 479 L 359.449219 479.023438 L 359.605469 479.066406 L 359.609375 479.066406 L 359.679688 479.085938 L 359.6875 479.089844 C 359.789062 479.121094 359.894531 479.148438 359.996094 479.179688 L 360 479.183594 L 360.074219 479.203125 L 360.078125 479.203125 C 360.257812 479.257812 360.441406 479.316406 360.621094 479.371094 L 360.625 479.371094 L 360.695312 479.394531 L 360.703125 479.394531 C 360.777344 479.417969 360.855469 479.445312 360.933594 479.46875 L 361.011719 479.492188 C 361.734375 479.722656 362.449219 479.96875 363.160156 480.226562 L 363.164062 480.226562 C 373.84375 484.152344 382.984375 491.402344 389.242188 500.910156 C 389.359375 501.085938 389.476562 501.265625 389.589844 501.445312 C 390.292969 502.539062 390.957031 503.664062 391.578125 504.816406 L 391.582031 504.816406 L 391.617188 504.886719 C 391.667969 504.984375 391.71875 505.074219 391.769531 505.167969 L 391.769531 505.171875 C 391.96875 505.546875 392.164062 505.925781 392.355469 506.3125 C 392.5 506.597656 392.640625 506.882812 392.78125 507.175781 L 392.78125 507.179688 C 392.828125 507.273438 392.871094 507.371094 392.917969 507.464844 L 392.917969 507.46875 C 393.007812 507.660156 393.101562 507.855469 393.1875 508.050781 L 393.222656 508.121094 L 393.222656 508.125 L 393.253906 508.195312 L 393.320312 508.34375 L 393.324219 508.347656 L 393.355469 508.414062 L 393.355469 508.421875 C 393.386719 508.492188 393.421875 508.566406 393.453125 508.636719 L 393.453125 508.640625 L 393.484375 508.710938 L 393.488281 508.714844 L 393.519531 508.785156 C 393.550781 508.859375 393.582031 508.933594 393.613281 509.007812 L 393.617188 509.011719 L 393.644531 509.078125 L 393.648438 509.085938 C 393.679688 509.15625 393.710938 509.230469 393.742188 509.300781 L 393.742188 509.308594 L 393.773438 509.375 L 393.773438 509.382812 C 393.859375 509.578125 393.941406 509.773438 394.019531 509.972656 L 394.023438 509.976562 C 394.0625 510.074219 394.101562 510.175781 394.140625 510.273438 L 394.144531 510.277344 C 394.171875 510.351562 394.203125 510.421875 394.230469 510.5 L 394.261719 510.574219 L 394.261719 510.578125 C 394.300781 510.675781 394.339844 510.777344 394.378906 510.875 C 394.417969 510.976562 394.457031 511.078125 394.496094 511.175781 L 394.496094 511.179688 C 394.570312 511.378906 394.648438 511.582031 394.722656 511.785156 L 394.722656 511.789062 C 394.941406 512.390625 395.152344 512.996094 395.351562 513.609375 C 397.617188 520.566406 405.097656 524.367188 412.054688 522.101562 C 419.003906 519.835938 422.808594 512.367188 420.550781 505.414062 C 410.003906 472.78125 379.671875 450.628906 345.375 450.507812 C 345.289062 450.5 345.203125 450.5 345.121094 450.5 Z M 345.121094 450.5 " style=" stroke:none;fill-rule:nonzero;fill:rgb(78.039216%,77.254902%,63.529412%);fill-opacity:1;"></path><path d="M 132.9375 530 C 132.9375 544.636719 121.074219 556.5 106.4375 556.5 C 91.800781 556.5 79.9375 544.636719 79.9375 530 C 79.9375 515.363281 91.800781 503.5 106.4375 503.5 C 121.074219 503.5 132.9375 515.363281 132.9375 530 Z M 132.9375 530 " style=" stroke:none;fill-rule:nonzero;fill:rgb(27.058824%,9.411765%,0%);fill-opacity:1;"></path><path d="M 26.9375 132.5 C 41.574219 132.5 53.4375 144.363281 53.4375 159 L 53.4375 503.5 C 53.4375 518.136719 41.574219 530 26.9375 530 C 12.300781 530 0.4375 518.136719 0.4375 503.5 L 0.4375 159 C 0.4375 144.363281 12.300781 132.5 26.9375 132.5 Z M 26.9375 132.5 " style=" stroke:none;fill-rule:nonzero;fill:rgb(87.058824%,88.235294%,78.431373%);fill-opacity:1;"></path><path d="M 40.1875 159 C 47.503906 159 53.4375 164.933594 53.4375 172.25 L 53.4375 410.75 C 53.4375 418.066406 47.503906 424 40.1875 424 C 32.871094 424 26.9375 418.066406 26.9375 410.75 L 26.9375 172.25 C 26.9375 164.933594 32.871094 159 40.1875 159 Z M 40.1875 159 " style=" stroke:none;fill-rule:nonzero;fill:rgb(78.039216%,77.254902%,63.529412%);fill-opacity:1;"></path><path d="M 582.894531 390.003906 C 587.035156 418.980469 566.898438 445.828125 537.921875 449.96875 C 535.441406 450.324219 532.9375 450.5 530.425781 450.5 L 79.9375 450.5 C 50.667969 450.5 26.9375 426.773438 26.9375 397.5 C 26.9375 395.542969 27.046875 393.589844 27.261719 391.648438 L 48.199219 285.648438 C 51.179688 258.804688 73.867188 238.5 100.875 238.5 L 512.039062 238.5 C 541.308594 238.5 565.039062 262.230469 565.039062 291.5 Z M 582.894531 390.003906 " style=" stroke:none;fill-rule:nonzero;fill:rgb(55.686275%,39.607843%,11.764706%);fill-opacity:1;"></path><path d="M 106.4375 397.5 L 318.4375 397.5 C 333.074219 397.5 344.9375 409.363281 344.9375 424 C 344.9375 438.636719 333.074219 450.5 318.4375 450.5 L 106.4375 450.5 C 91.800781 450.5 79.9375 438.636719 79.9375 424 C 79.9375 409.363281 91.800781 397.5 106.4375 397.5 Z M 106.4375 397.5 " style=" stroke:none;fill-rule:nonzero;fill:rgb(45.882353%,29.803922%,1.176471%);fill-opacity:1;"></path><path d="M 582.894531 390.003906 L 565.039062 291.5 C 565.039062 262.226562 541.308594 238.5 512.039062 238.5 L 424.4375 238.5 L 424.4375 450.5 L 530.429688 450.5 C 559.699219 450.5 583.429688 426.769531 583.429688 397.496094 C 583.429688 394.992188 583.25 392.488281 582.894531 390.003906 Z M 582.894531 390.003906 " style=" stroke:none;fill-rule:nonzero;fill:rgb(45.882353%,29.803922%,1.176471%);fill-opacity:1;"></path><path d="M 392.1875 264.367188 L 345.738281 436.796875 C 341.78125 454.609375 353.007812 472.253906 370.820312 476.214844 C 373.171875 476.734375 375.574219 477 377.988281 477 L 470.890625 477 C 489.132812 477 503.925781 462.210938 503.925781 443.964844 C 503.925781 441.554688 503.660156 439.152344 503.136719 436.796875 L 456.6875 264.367188 C 453.328125 249.253906 439.921875 238.5 424.4375 238.5 C 408.953125 238.5 395.546875 249.253906 392.1875 264.367188 Z M 392.1875 264.367188 " style=" stroke:none;fill-rule:nonzero;fill:rgb(61.176471%,47.058824%,22.745098%);fill-opacity:1;"></path><path d="M 180.1875 264.367188 L 133.738281 436.796875 C 129.78125 454.609375 141.007812 472.253906 158.820312 476.214844 C 161.171875 476.734375 163.578125 477 165.988281 477 L 258.890625 477 C 277.136719 477 291.925781 462.210938 291.925781 443.964844 C 291.925781 441.554688 291.660156 439.152344 291.140625 436.796875 L 244.6875 264.367188 C 241.328125 249.253906 227.921875 238.5 212.4375 238.5 C 196.953125 238.5 183.546875 249.253906 180.1875 264.367188 Z M 180.1875 264.367188 " style=" stroke:none;fill-rule:nonzero;fill:rgb(61.176471%,47.058824%,22.745098%);fill-opacity:1;"></path><path d="M 256.414062 243.835938 C 249.089844 243.839844 243.160156 249.78125 243.164062 257.105469 C 243.164062 258.503906 243.386719 259.890625 243.820312 261.21875 C 243.980469 261.707031 244.132812 262.199219 244.269531 262.699219 L 244.273438 262.707031 L 244.296875 262.800781 L 244.316406 262.867188 L 244.320312 262.894531 L 244.335938 262.941406 L 244.347656 262.984375 L 244.359375 263.03125 L 244.371094 263.070312 L 244.375 263.097656 L 244.394531 263.164062 L 244.398438 263.179688 L 244.421875 263.261719 L 244.421875 263.269531 C 244.480469 263.5 244.539062 263.730469 244.59375 263.960938 L 244.59375 263.96875 L 244.613281 264.054688 L 244.632812 264.132812 L 244.640625 264.171875 L 244.648438 264.207031 L 244.664062 264.269531 L 244.667969 264.292969 L 244.683594 264.367188 L 286.582031 419.894531 C 288.507812 426.953125 295.789062 431.117188 302.851562 429.191406 C 309.898438 427.273438 314.0625 420.011719 312.160156 412.960938 L 270.273438 257.472656 C 269.925781 255.945312 269.5 254.4375 269 252.953125 C 267.214844 247.515625 262.140625 243.839844 256.414062 243.835938 Z M 256.414062 243.835938 " style=" stroke:none;fill-rule:nonzero;fill:rgb(45.882353%,29.803922%,1.176471%);fill-opacity:1;"></path><path d="M 468.414062 243.835938 C 461.089844 243.839844 455.15625 249.78125 455.164062 257.105469 C 455.164062 258.503906 455.386719 259.890625 455.820312 261.21875 C 455.980469 261.707031 456.132812 262.199219 456.269531 262.699219 L 456.269531 262.707031 L 456.292969 262.785156 L 456.296875 262.800781 L 456.3125 262.867188 L 456.320312 262.894531 L 456.335938 262.941406 L 456.347656 262.984375 L 456.359375 263.03125 L 456.367188 263.070312 L 456.375 263.097656 L 456.394531 263.164062 L 456.398438 263.179688 L 456.417969 263.261719 L 456.421875 263.269531 C 456.480469 263.5 456.539062 263.730469 456.589844 263.960938 L 456.59375 263.96875 L 456.613281 264.054688 L 456.632812 264.132812 L 456.640625 264.171875 L 456.648438 264.207031 L 456.660156 264.269531 L 456.667969 264.292969 L 456.683594 264.367188 L 498.582031 419.894531 C 500.507812 426.953125 507.792969 431.113281 514.851562 429.1875 C 521.894531 427.261719 526.054688 420.007812 524.160156 412.960938 L 482.273438 257.476562 C 481.925781 255.949219 481.5 254.441406 481 252.957031 C 479.214844 247.515625 474.140625 243.839844 468.414062 243.835938 Z M 468.414062 243.835938 " style=" stroke:none;fill-rule:nonzero;fill:rgb(41.568627%,23.529412%,0%);fill-opacity:1;"></path><path d="M 517.1875 185.5 L 225.6875 185.5 C 218.371094 185.492188 212.433594 191.417969 212.425781 198.734375 C 212.414062 206.054688 218.34375 211.992188 225.660156 212 C 225.667969 212 225.679688 212 225.6875 212 L 238.9375 212 C 265.4375 212 265.4375 238.5 291.9375 238.5 L 450.9375 238.5 C 477.4375 238.5 477.4375 212 503.9375 212 L 517.1875 212 C 524.503906 212 530.4375 206.066406 530.4375 198.75 C 530.4375 191.433594 524.503906 185.5 517.1875 185.5 Z M 517.1875 185.5 " style=" stroke:none;fill-rule:nonzero;fill:rgb(43.921569%,23.137255%,14.509804%);fill-opacity:1;"></path><path d="M 517.1875 185.5 L 411.1875 185.5 C 418.503906 185.492188 424.445312 191.417969 424.453125 198.734375 C 424.460938 206.054688 418.53125 211.992188 411.214844 212 C 411.207031 212 411.199219 212 411.1875 212 L 397.9375 212 C 371.4375 212 371.4375 238.5 344.9375 238.5 L 450.9375 238.5 C 477.4375 238.5 477.4375 212 503.9375 212 L 517.1875 212 C 524.503906 212 530.4375 206.066406 530.4375 198.75 C 530.4375 191.433594 524.503906 185.5 517.1875 185.5 Z M 517.1875 185.5 " style=" stroke:none;fill-rule:nonzero;fill:rgb(27.058824%,9.411765%,0%);fill-opacity:1;"></path><path d="M 397.9375 26.5 C 397.9375 41.136719 386.074219 53 371.4375 53 C 356.800781 53 344.9375 41.136719 344.9375 26.5 C 344.9375 11.863281 356.800781 0 371.4375 0 C 386.074219 0 397.9375 11.863281 397.9375 26.5 Z M 397.9375 26.5 " style=" stroke:none;fill-rule:nonzero;fill:rgb(78.039216%,77.254902%,63.529412%);fill-opacity:1;"></path><path d="M 371.4375 13.25 C 371.4375 20.566406 365.503906 26.5 358.1875 26.5 C 350.871094 26.5 344.9375 20.566406 344.9375 13.25 C 344.9375 5.933594 350.871094 0 358.1875 0 C 365.503906 0 371.4375 5.933594 371.4375 13.25 Z M 371.4375 13.25 " style=" stroke:none;fill-rule:nonzero;fill:rgb(93.333333%,93.72549%,88.235294%);fill-opacity:1;"></path><path d="M 517.1875 159 L 516.535156 159 C 509.53125 158.878906 503.792969 153.398438 503.347656 146.40625 C 496.386719 73.554688 431.683594 20.140625 358.832031 27.101562 C 295.613281 33.140625 245.570312 83.1875 239.527344 146.40625 C 239.082031 153.398438 233.34375 158.878906 226.339844 159 L 225.6875 159 C 218.371094 159 212.4375 164.933594 212.4375 172.25 C 212.4375 179.566406 218.371094 185.5 225.6875 185.5 L 517.1875 185.5 C 524.503906 185.5 530.4375 179.566406 530.4375 172.25 C 530.4375 164.933594 524.503906 159 517.1875 159 Z M 517.1875 159 " style=" stroke:none;fill-rule:nonzero;fill:rgb(87.058824%,88.235294%,78.431373%);fill-opacity:1;"></path><path d="M 517.1875 159 L 516.535156 159 C 509.53125 158.878906 503.789062 153.398438 503.347656 146.40625 C 497.257812 74.347656 433.90625 20.867188 361.847656 26.957031 C 351.585938 27.824219 341.460938 29.898438 331.6875 33.136719 C 381.484375 48.875 418.785156 92.730469 423.847656 146.40625 C 424.292969 153.398438 430.03125 158.878906 437.035156 159 L 437.6875 159 C 445.003906 159 450.9375 164.933594 450.9375 172.25 C 450.9375 179.566406 445.003906 185.5 437.6875 185.5 L 517.1875 185.5 C 524.503906 185.5 530.4375 179.566406 530.4375 172.25 C 530.4375 164.933594 524.503906 159 517.1875 159 Z M 517.1875 159 " style=" stroke:none;fill-rule:nonzero;fill:rgb(78.039216%,77.254902%,63.529412%);fill-opacity:1;"></path><path d="M 450.9375 106 L 477.4375 106 C 492.070312 106 503.9375 117.863281 503.9375 132.5 C 503.9375 147.132812 492.070312 159 477.4375 159 L 450.9375 159 C 436.300781 159 424.4375 147.132812 424.4375 132.5 C 424.4375 117.863281 436.300781 106 450.9375 106 Z M 450.9375 106 " style=" stroke:none;fill-rule:nonzero;fill:rgb(70.980392%,67.843137%,51.764706%);fill-opacity:1;"></path><path d="M 291.9375 106 L 371.4375 106 C 386.070312 106 397.9375 117.863281 397.9375 132.5 C 397.9375 147.132812 386.070312 159 371.4375 159 L 291.9375 159 C 277.300781 159 265.4375 147.132812 265.4375 132.5 C 265.4375 117.863281 277.300781 106 291.9375 106 Z M 291.9375 106 " style=" stroke:none;fill-rule:nonzero;fill:rgb(78.039216%,77.254902%,63.529412%);fill-opacity:1;"></path><path d="M 338.253906 59.679688 C 326.078125 47.503906 301.402344 52.441406 283.136719 70.703125 C 264.875 88.96875 259.9375 113.644531 272.113281 125.820312 C 284.289062 137.996094 308.96875 133.0625 327.230469 114.796875 C 345.496094 96.535156 350.429688 71.855469 338.253906 59.679688 Z M 338.253906 59.679688 " style=" stroke:none;fill-rule:nonzero;fill:rgb(93.333333%,93.72549%,88.235294%);fill-opacity:1;"></path><path d="M 305.1875 212 L 358.1875 212 C 365.503906 212 371.4375 217.933594 371.4375 225.25 C 371.4375 232.566406 365.503906 238.5 358.1875 238.5 L 305.1875 238.5 C 297.871094 238.5 291.9375 232.566406 291.9375 225.25 C 291.9375 217.933594 297.871094 212 305.1875 212 Z M 305.1875 212 " style=" stroke:none;fill-rule:nonzero;fill:rgb(38.823529%,18.823529%,10.980392%);fill-opacity:1;"></path><path d="M 93.1875 238.5 L 146.1875 238.5 C 153.503906 238.5 159.4375 244.433594 159.4375 251.75 C 159.4375 259.066406 153.503906 265 146.1875 265 L 93.1875 265 C 85.871094 265 79.9375 259.066406 79.9375 251.75 C 79.9375 244.433594 85.871094 238.5 93.1875 238.5 Z M 93.1875 238.5 " style=" stroke:none;fill-rule:nonzero;fill:rgb(61.176471%,47.058824%,22.745098%);fill-opacity:1;"></path><path d="M 278.6875 238.5 L 358.1875 238.5 C 365.503906 238.5 371.4375 244.433594 371.4375 251.75 C 371.4375 259.066406 365.503906 265 358.1875 265 L 278.6875 265 C 271.371094 265 265.4375 259.066406 265.4375 251.75 C 265.4375 244.433594 271.371094 238.5 278.6875 238.5 Z M 278.6875 238.5 " style=" stroke:none;fill-rule:nonzero;fill:rgb(61.176471%,47.058824%,22.745098%);fill-opacity:1;"></path><path d="M 490.6875 238.5 L 517.1875 238.5 C 524.503906 238.5 530.4375 244.433594 530.4375 251.75 C 530.4375 259.066406 524.503906 265 517.1875 265 L 490.6875 265 C 483.371094 265 477.4375 259.066406 477.4375 251.75 C 477.4375 244.433594 483.371094 238.5 490.6875 238.5 Z M 490.6875 238.5 " style=" stroke:none;fill-rule:nonzero;fill:rgb(55.686275%,39.607843%,11.764706%);fill-opacity:1;"></path><path d="M 411.1875 212 L 437.6875 212 C 445.003906 212 450.9375 217.933594 450.9375 225.25 C 450.9375 232.566406 445.003906 238.5 437.6875 238.5 L 411.1875 238.5 C 403.871094 238.5 397.9375 232.566406 397.9375 225.25 C 397.9375 217.933594 403.871094 212 411.1875 212 Z M 411.1875 212 " style=" stroke:none;fill-rule:nonzero;fill:rgb(20.784314%,4.313725%,0%);fill-opacity:1;"></path><path d="M 212.4375 265 C 227.070312 265 238.9375 276.863281 238.9375 291.5 L 238.9375 424 C 238.9375 438.636719 227.070312 450.5 212.4375 450.5 C 197.800781 450.5 185.9375 438.636719 185.9375 424 L 185.9375 291.5 C 185.9375 276.863281 197.800781 265 212.4375 265 Z M 212.4375 265 " style=" stroke:none;fill-rule:nonzero;fill:rgb(73.333333%,63.529412%,46.666667%);fill-opacity:1;"></path><path d="M 424.4375 265 C 439.074219 265 450.9375 276.863281 450.9375 291.5 L 450.9375 424 C 450.9375 438.636719 439.074219 450.5 424.4375 450.5 C 409.800781 450.5 397.9375 438.636719 397.9375 424 L 397.9375 291.5 C 397.9375 276.863281 409.800781 265 424.4375 265 Z M 424.4375 265 " style=" stroke:none;fill-rule:nonzero;fill:rgb(73.333333%,63.529412%,46.666667%);fill-opacity:1;"></path></g></svg>